# xmcd CD database file
#
# Track frame offsets:
#	150
#	13927
#	27657
#	41909
#	58795
#	71613
#	87976
#	105403
#	124676
#	144407
#	165735
#	187405
#	204595
#	223472
#
# Disc length: 3229 seconds
#
# Revision: 1
# Processed by: cddbd v1.5.2PL0 Copyright (c) Steve Scherf et al.
# Submitted via: CDex 1.70beta2
#
DISCID=de0c9b0e
DTITLE=Jay Jay Johnson  - The Ultimate Jazz Archive Set 28
DYEAR=2005
DGENRE=Jazz
TTITLE0=Teapot
TTITLE1=Afternoon In Paris
TTITLE2=Elora
TTITLE3=Blue Mode (1)
TTITLE4=Blue Mode (2)
TTITLE5=Capri
TTITLE6=Lover Man
TTITLE7=Turnpike
TTITLE8=Sketch
TTITLE9=It Could Happen To You
TTITLE10=Get Happy
TTITLE11=Capri (2)
TTITLE12=Turnpike (2)
TTITLE13=Get Happy (2)
EXTD=YEAR: 2005
EXTT0=
EXTT1=
EXTT2=
EXTT3=
EXTT4=
EXTT5=
EXTT6=
EXTT7=
EXTT8=
EXTT9=
EXTT10=
EXTT11=
EXTT12=
EXTT13=
PLAYORDER=
